<?xml version="1.0" encoding="utf-8"?>
<!-- Generator: Adobe Illustrator 17.0.0, SVG Export Plug-In . SVG Version: 6.00 Build 0)  -->
<!DOCTYPE svg PUBLIC "-//W3C//DTD SVG 1.1//EN" "http://www.w3.org/Graphics/SVG/1.1/DTD/svg11.dtd">
<svg version="1.1" id="Ebene_1" xmlns="http://www.w3.org/2000/svg" xmlns:xlink="http://www.w3.org/1999/xlink" x="0px" y="0px"
	 width="600px" height="600px" viewBox="0 0 600 600" enable-background="new 0 0 600 600" xml:space="preserve">
<path fill="#010202" d="M388.752,131.487h164c23.748,0,43,13.415,43,29.961l0,0c0,16.548-19.252,29.962-43,29.962h-164
	c-23.748,0-43-13.415-43-29.962l0,0C345.751,144.901,365.003,131.487,388.752,131.487z"/>
<path fill="#010202" d="M207.959,467.126l49.505-49.927c20.356-20.53,27.182-46.767,15.246-58.602
	c-11.935-11.836-38.114-4.787-58.47,15.743l-49.322,49.743l-48.827-48.828c-20.443-20.443-46.651-27.381-58.536-15.496
	c-11.886,11.885-4.949,38.094,15.495,58.537l49.009,49.01l-48.395,48.808c-20.357,20.53-27.182,46.767-15.246,58.602
	c11.935,11.836,38.114,4.787,58.47-15.743l48.213-48.624l49.125,49.126c20.443,20.443,46.652,27.38,58.537,15.495
	c11.886-11.885,4.949-38.094-15.495-58.537L207.959,467.126z"/>
<g>
	<path fill="#010202" d="M565.966,517.539L420.031,371.604c-21.132-21.133-48.223-28.304-60.51-16.018
		c-12.285,12.286-5.115,39.377,16.018,60.51l145.934,145.936c21.132,21.132,48.223,28.303,60.51,16.017
		C594.269,565.763,587.099,538.672,565.966,517.539z"/>
	<circle fill="#010202" cx="530.527" cy="406.335" r="37.753"/>
	<circle fill="#010202" cx="411.919" cy="527.775" r="37.753"/>
</g>
<path fill="#010202" d="M195.717,131.351l-0.303-71.376c-0.125-29.349-14.058-53.084-31.123-53.011
	c-17.064,0.072-30.796,23.924-30.671,53.274l0.302,71.113H63.822c-29.35,0-53.143,13.833-53.143,30.896
	c-0.001,17.064,23.793,30.898,53.143,30.898l70.363,0.001l0.296,69.776c0.124,29.35,14.058,53.084,31.123,53.011
	c17.064-0.072,30.796-23.924,30.671-53.274l-0.295-69.514l70.529,0.001c29.35,0,53.143-13.834,53.143-30.898
	c0.001-17.064-23.793-30.898-53.143-30.898L195.717,131.351z"/>
</svg>
