<?xml version="1.0" encoding="utf-8"?>
<!-- Generator: Adobe Illustrator 17.0.0, SVG Export Plug-In . SVG Version: 6.00 Build 0)  -->
<!DOCTYPE svg PUBLIC "-//W3C//DTD SVG 1.1//EN" "http://www.w3.org/Graphics/SVG/1.1/DTD/svg11.dtd">
<svg version="1.1" id="Ebene_1" xmlns="http://www.w3.org/2000/svg" xmlns:xlink="http://www.w3.org/1999/xlink" x="0px" y="0px"
	 width="600px" height="600px" viewBox="0 0 600 600" enable-background="new 0 0 600 600" xml:space="preserve">
<polygon fill="none" stroke="#000000" stroke-miterlimit="10" points="85.021,188.167 35.855,337.167 134.188,337.167 "/>
<polygon fill="none" stroke="#000000" stroke-miterlimit="10" points="514.979,188.167 465.812,337.167 564.145,337.167 "/>
<path stroke="#000000" stroke-miterlimit="10" d="M581.645,319c0,25.083-29.848,45.417-66.667,45.417S448.312,344.083,448.312,319
	H581.645z"/>
<polygon stroke="#000000" stroke-miterlimit="10" points="328.833,149.833 270.5,149.833 299.667,57.333 "/>
<path stroke="#000000" stroke-miterlimit="10" d="M151.688,319c0,25.083-29.848,45.417-66.667,45.417S18.355,344.083,18.355,319
	H151.688z"/>
<path stroke="#000000" stroke-miterlimit="10" d="M515.812,165.696H351.559C344.156,144.34,323.876,129,300,129
	s-44.156,15.34-51.559,36.696H84.188c-26.694,0-48.333,14.647-48.333,32.715s21.64,32.715,48.333,32.715
	c23.008,0,42.248-10.885,47.126-25.46h118.793c8.483,19.125,27.624,32.471,49.893,32.471s41.41-13.347,49.893-32.471h118.793
	c4.878,14.575,24.117,25.46,47.126,25.46c26.694,0,48.333-14.647,48.333-32.715S542.506,165.696,515.812,165.696z"/>
<g>
	<path stroke="#000000" stroke-miterlimit="10" d="M413.918,429.833l-20.912-33.269h-32.605h-5.058
		c-37.663,0-25.419-170.396-25.419-170.396h-59.85c0,0,11.336,170.396-25.982,170.396h-4.97h-31.952l-20.998,33.269H413.918z"/>
	<polygon stroke="#000000" stroke-miterlimit="10" points="179.336,440.667 163.958,465.03 436.042,465.03 420.728,440.667 	"/>
</g>
</svg>
