<?xml version="1.0" encoding="utf-8"?>
<!-- Generator: Adobe Illustrator 17.0.0, SVG Export Plug-In . SVG Version: 6.00 Build 0)  -->
<!DOCTYPE svg PUBLIC "-//W3C//DTD SVG 1.1//EN" "http://www.w3.org/Graphics/SVG/1.1/DTD/svg11.dtd">
<svg version="1.1" id="Ebene_1" xmlns="http://www.w3.org/2000/svg" xmlns:xlink="http://www.w3.org/1999/xlink" x="0px" y="0px"
	 width="600px" height="600px" viewBox="0 0 600 600" enable-background="new 0 0 600 600" xml:space="preserve">
<circle fill="#B2B2B2" stroke="#000000" stroke-miterlimit="10" cx="301" cy="300" r="264.833"/>
<circle fill="#9D9D9C" stroke="#000000" stroke-miterlimit="10" cx="301" cy="300" r="219.833"/>
<radialGradient id="SVGID_1_" cx="301" cy="267.2715" r="105.0979" gradientUnits="userSpaceOnUse">
	<stop  offset="0.5744" style="stop-color:#000000;stop-opacity:0"/>
	<stop  offset="0.7977" style="stop-color:#000000;stop-opacity:0.6512"/>
	<stop  offset="1" style="stop-color:#000000;stop-opacity:0.95"/>
</radialGradient>
<path fill="url(#SVGID_1_)" stroke="#000000" stroke-miterlimit="10" d="M395.667,247.688c0-52.467-42.384-95-94.667-95
	s-94.667,42.533-94.667,95c0,33.583,13.123,63.272,39.333,80.167c-0.095,1.243-0.159,2.494-0.159,3.76
	c0,27.844,27.561,50.24,56.326,50.24s59.075-21.349,59.075-49.193c0-1.622-0.087-3.224-0.242-4.807
	C385.99,310.805,395.667,280.589,395.667,247.688z"/>
<polyline fill="none" stroke="#000000" stroke-miterlimit="10" points="268.385,370.734 260.167,206.855 276.5,215.188 
	290.667,202.688 311.5,213.521 328.167,197.688 341.833,206.855 333.615,370.734 "/>
<radialGradient id="SVGID_2_" cx="301" cy="391.1201" r="31.9982" gradientUnits="userSpaceOnUse">
	<stop  offset="0.5744" style="stop-color:#000000;stop-opacity:0"/>
	<stop  offset="0.7977" style="stop-color:#000000;stop-opacity:0.6512"/>
	<stop  offset="1" style="stop-color:#000000;stop-opacity:0.95"/>
</radialGradient>
<path fill="url(#SVGID_2_)" stroke="#000000" stroke-miterlimit="10" d="M344.667,380.801c0,5.063-19.55,22.193-43.667,22.193
	c-24.116,0-43.667-17.13-43.667-22.193s19.55,3.86,43.667,3.86C325.116,384.661,344.667,375.738,344.667,380.801z"/>
<radialGradient id="SVGID_3_" cx="301" cy="414.7173" r="23.011" gradientUnits="userSpaceOnUse">
	<stop  offset="0.5744" style="stop-color:#000000;stop-opacity:0"/>
	<stop  offset="0.7977" style="stop-color:#000000;stop-opacity:0.6512"/>
	<stop  offset="1" style="stop-color:#000000;stop-opacity:0.95"/>
</radialGradient>
<path fill="url(#SVGID_3_)" stroke="#000000" stroke-miterlimit="10" d="M332.402,407.296c0,3.641-14.059,15.96-31.402,15.96
	s-31.402-12.319-31.402-15.96c0-3.641,14.059,2.776,31.402,2.776S332.402,403.656,332.402,407.296z"/>
<radialGradient id="SVGID_4_" cx="301" cy="432.5612" r="14.3639" gradientUnits="userSpaceOnUse">
	<stop  offset="0.5744" style="stop-color:#000000;stop-opacity:0"/>
	<stop  offset="0.7977" style="stop-color:#000000;stop-opacity:0.6512"/>
	<stop  offset="1" style="stop-color:#000000;stop-opacity:0.95"/>
</radialGradient>
<path fill="url(#SVGID_4_)" stroke="#000000" stroke-miterlimit="10" d="M320.602,427.929c0,2.273-8.776,9.962-19.602,9.962
	c-10.826,0-19.602-7.69-19.602-9.962c0-2.273,8.776,1.733,19.602,1.733C311.826,429.662,320.602,425.656,320.602,427.929z"/>
<path fill="#010202" d="M337.7,263.436h-24.592v-24.592c0-10.291-4.85-18.633-10.833-18.633c-5.983,0-10.833,8.342-10.833,18.633
	v24.592h-24.808c-10.291,0-18.633,4.85-18.633,10.833c0,5.983,8.343,10.833,18.633,10.833h24.808v24.808
	c0,10.291,4.85,18.633,10.833,18.633c5.983,0,10.833-8.343,10.833-18.633v-24.808H337.7c10.291,0,18.633-4.85,18.633-10.833
	C356.333,268.286,347.991,263.436,337.7,263.436z"/>
</svg>
