<?xml version="1.0" encoding="utf-8"?>
<!-- Generator: Adobe Illustrator 17.0.0, SVG Export Plug-In . SVG Version: 6.00 Build 0)  -->
<!DOCTYPE svg PUBLIC "-//W3C//DTD SVG 1.1//EN" "http://www.w3.org/Graphics/SVG/1.1/DTD/svg11.dtd">
<svg version="1.1" id="Ebene_1" xmlns="http://www.w3.org/2000/svg" xmlns:xlink="http://www.w3.org/1999/xlink" x="0px" y="0px"
	 width="600px" height="600px" viewBox="0 0 600 600" enable-background="new 0 0 600 600" xml:space="preserve">
<polygon stroke="#000000" stroke-miterlimit="10" points="297.119,313.151 190.431,508.092 173.501,440.279 107.256,462.572 
	213.944,267.631 "/>
<polygon stroke="#000000" stroke-miterlimit="10" points="440.334,533.854 298.367,305.783 378.863,255.677 520.83,483.748 
	448.222,456.814 "/>
<path stroke="#000000" stroke-miterlimit="10" d="M295.158,58.958c0-74.075-134.836-22.627-83.477,28.732
	c-52.347-51.359-105.563,92.949-38.401,92.949c-57.285,0-16.136,138.638,38.186,84.316c-53.334,53.334,85.272,110.057,83.692,48.822
	c0,60.248,137.928-2.775,95.952-44.751c41.976,41.976,94.273-88.387,36.001-88.387c58.273,0,3.855-141.56-47.503-90.201
	C430.966,39.079,295.158-15.118,295.158,58.958z M295.158,284.146c-57.166,0-103.508-46.342-103.508-103.508
	c0-57.166,46.342-103.508,103.508-103.508c57.166,0,103.508,46.342,103.508,103.508
	C398.666,237.804,352.324,284.146,295.158,284.146z"/>
</svg>
