<?xml version="1.0" encoding="utf-8"?>
<!-- Generator: Adobe Illustrator 17.0.0, SVG Export Plug-In . SVG Version: 6.00 Build 0)  -->
<!DOCTYPE svg PUBLIC "-//W3C//DTD SVG 1.1//EN" "http://www.w3.org/Graphics/SVG/1.1/DTD/svg11.dtd">
<svg version="1.1" id="Ebene_1" xmlns="http://www.w3.org/2000/svg" xmlns:xlink="http://www.w3.org/1999/xlink" x="0px" y="0px"
	 width="600px" height="600px" viewBox="0 0 600 600" enable-background="new 0 0 600 600" xml:space="preserve">
<path stroke="#000000" stroke-miterlimit="10" d="M299.75,24.833c-28.673,0-51.917,23.244-51.917,51.917
	c0,18.315,9.492,34.403,23.817,43.645c-10.059-8.222-16.484-20.723-16.484-34.728c0-24.761,20.073-44.833,44.833-44.833
	s44.833,20.073,44.833,44.833c0,13.102-5.622,24.888-14.583,33.086c12.974-9.438,21.416-24.73,21.416-42.002
	C351.667,48.077,328.423,24.833,299.75,24.833z"/>
<rect x="271.667" y="128.833" stroke="#000000" stroke-miterlimit="10" width="58.194" height="37.833"/>
<path stroke="#000000" stroke-miterlimit="10" d="M300,159c-105.855,0-191.667,85.812-191.667,191.667S194.145,542.334,300,542.334
	s191.667-85.812,191.667-191.667S405.855,159,300,159z M300.764,513.833c-97.018,0-165.293-66.148-165.293-163.167
	s68.008-163.833,165.026-163.833s162.974,66.816,162.974,163.833S397.782,513.833,300.764,513.833z"/>
<path stroke="#000000" stroke-miterlimit="10" d="M363.592,403.665l-53.25-53.25c0.086-0.585,0.146-1.179,0.146-1.788
	c0-3.425-1.42-6.514-3.697-8.725c0.014-0.202,0.031-0.403,0.031-0.609v-95.667c0-4.694-3.806-8.5-8.5-8.5s-8.5,3.806-8.5,8.5v95.667
	c0,0.205,0.016,0.407,0.031,0.609c-2.277,2.211-3.697,5.3-3.697,8.725c0,6.719,5.447,12.167,12.167,12.167
	c1.024,0,2.013-0.14,2.963-0.378l52.779,52.779c2.631,2.631,6.898,2.631,9.529,0C366.223,410.563,366.223,406.296,363.592,403.665z"
	/>
<rect x="261.167" y="103.833" stroke="#000000" stroke-miterlimit="10" width="77.667" height="28.333"/>
<rect x="125.441" y="348.733" stroke="#000000" stroke-miterlimit="10" width="32.059" height="12.868"/>
<rect x="441.382" y="341.734" stroke="#000000" stroke-miterlimit="10" width="32.059" height="12.868"/>
<rect x="292.564" y="175.804" stroke="#000000" stroke-miterlimit="10" width="12.868" height="32.059"/>
<rect x="294.062" y="491.804" stroke="#000000" stroke-miterlimit="10" width="12.868" height="32.059"/>
</svg>
