<?xml version="1.0" encoding="utf-8"?>
<!-- Generator: Adobe Illustrator 17.0.0, SVG Export Plug-In . SVG Version: 6.00 Build 0)  -->
<!DOCTYPE svg PUBLIC "-//W3C//DTD SVG 1.1//EN" "http://www.w3.org/Graphics/SVG/1.1/DTD/svg11.dtd">
<svg version="1.1" id="Ebene_1" xmlns="http://www.w3.org/2000/svg" xmlns:xlink="http://www.w3.org/1999/xlink" x="0px" y="0px"
	 width="160px" height="160.443px" viewBox="0 0 160 160.443" enable-background="new 0 0 160 160.443" xml:space="preserve">
<g>
	<path d="M22.76,86.271c-0.646,0-1.32-0.274-2.019-0.823c-0.702-0.548-1.211-0.912-1.534-1.097l-1.453-3.838
		c0.214-2.742,0.646-5.3,1.292-7.678c0.106-0.548,1.559-2.373,4.36-5.484c3.444-3.654,6.944-7.403,10.496-11.242
		c6.997-8.042,12.326-14.348,15.987-18.92c4.522-5.664,9.689-12.429,15.502-20.291c1.184-1.645,2.771-2.878,4.764-3.701
		c1.991-0.823,3.956-1.414,5.894-1.782c1.292,0.733,1.938,2.194,1.938,4.387c0,4.388-2.099,17.001-6.298,37.839
		c-3.661,18.097-7.86,37.247-12.595,57.443c-4.739,20.2-7.751,31.58-9.043,34.137c-0.108,0.186-0.404,0.412-0.888,0.685
		c-0.485,0.275-1.078,0.507-1.776,0.685c-0.702,0.186-3.311,1.466-7.832,3.84c-3.552,1.824-6.083,2.742-7.589,2.742
		c-1.509,0-2.531-0.596-3.068-1.783c-0.54-1.191-1.025-3.333-1.453-6.442c8.826-31.438,17.708-62.971,26.644-94.597
		c-8.937,11.7-15.961,20.611-21.073,26.734C27.899,83.212,24.48,86.271,22.76,86.271z"/>
	<path d="M137.883,53.931c0,19.378-5.437,40.128-16.31,62.242c-11.198,22.853-22.34,34.274-33.427,34.274
		c-7.537,0-13.782-4.291-18.732-12.887c-4.953-8.59-7.429-19.374-7.429-32.355c0-15.903,2.637-30.615,7.913-44.144
		c3.982-10.42,10.279-21.842,18.894-34.274c5.919-8.954,9.527-14.164,10.819-15.63c4.305-4.935,8.773-7.403,13.403-7.403
		c7.212,0,13.242,5.394,18.087,16.178C135.622,29.987,137.883,41.319,137.883,53.931z M83.625,91.496
		c0,9.143,0.914,16.821,2.746,23.033c2.475,8.226,6.136,12.339,10.98,12.339c7.105,0,12.81-7.31,17.117-21.936
		c3.552-12.066,5.329-24.858,5.329-38.387c0-9.139-1.025-16.906-3.069-23.306c-2.583-8.226-6.406-12.339-11.465-12.339
		c-6.46,0-11.844,7.587-16.149,22.758C85.454,66.455,83.625,79.068,83.625,91.496z"/>
</g>
</svg>
