<?xml version="1.0" encoding="utf-8"?>
<!-- Generator: Adobe Illustrator 17.0.0, SVG Export Plug-In . SVG Version: 6.00 Build 0)  -->
<!DOCTYPE svg PUBLIC "-//W3C//DTD SVG 1.1//EN" "http://www.w3.org/Graphics/SVG/1.1/DTD/svg11.dtd">
<svg version="1.1" id="Ebene_1" xmlns="http://www.w3.org/2000/svg" xmlns:xlink="http://www.w3.org/1999/xlink" x="0px" y="0px"
	 width="160.25px" height="160.25px" viewBox="4.25 -2.25 160.25 160.25" enable-background="new 4.25 -2.25 160.25 160.25"
	 xml:space="preserve">
<g>
	<path d="M10.043,84.58c-0.575,0-1.176-0.264-1.798-0.793c-0.625-0.528-1.079-0.879-1.367-1.057l-1.295-3.7
		c0.191-2.643,0.575-5.109,1.151-7.402c0.095-0.528,1.389-2.288,3.884-5.287c3.068-3.523,6.186-7.137,9.35-10.837
		c6.233-7.753,10.98-13.832,14.241-18.239c4.028-5.46,8.631-11.982,13.809-19.561c1.055-1.586,2.468-2.775,4.244-3.568
		c1.773-0.793,3.524-1.363,5.251-1.718c1.15,0.706,1.726,2.115,1.726,4.229c0,4.23-1.87,16.389-5.61,36.478
		c-3.261,17.446-7.001,35.908-11.22,55.377c-4.221,19.474-6.905,30.445-8.056,32.909c-0.096,0.179-0.36,0.398-0.791,0.661
		c-0.432,0.265-0.96,0.489-1.582,0.661c-0.625,0.179-2.949,1.413-6.977,3.702c-3.164,1.759-5.419,2.643-6.761,2.643
		c-1.344,0-2.254-0.575-2.733-1.719c-0.481-1.148-0.913-3.213-1.295-6.211c7.862-30.307,15.774-60.706,23.735-91.194
		c-7.961,11.279-14.218,19.87-18.772,25.772C14.621,81.631,11.576,84.58,10.043,84.58z"/>
	<path d="M111.89,55.736c0,18.681-4.844,38.684-14.528,60.003c-9.975,22.031-19.9,33.041-29.776,33.041
		c-6.714,0-12.277-4.137-16.686-12.423c-4.412-8.281-6.617-18.677-6.617-31.191c0-15.331,2.349-29.514,7.049-42.556
		c3.547-10.045,9.157-21.056,16.83-33.041c5.273-8.632,8.487-13.655,9.638-15.067c3.835-4.757,7.815-7.137,11.939-7.137
		c6.423,0,11.795,5.2,16.111,15.596C109.877,32.653,111.89,43.577,111.89,55.736z M63.558,91.949c0,8.814,0.814,16.216,2.446,22.205
		c2.205,7.93,5.466,11.895,9.781,11.895c6.329,0,11.411-7.047,15.248-21.146c3.165-11.632,4.747-23.964,4.747-37.006
		c0-8.81-0.913-16.298-2.733-22.468c-2.301-7.93-5.707-11.895-10.213-11.895c-5.754,0-10.55,7.314-14.385,21.939
		C65.187,67.809,63.558,79.969,63.558,91.949z"/>
	<path d="M163.167,55.736c0,18.681-4.844,38.684-14.528,60.003c-9.976,22.031-19.901,33.041-29.777,33.041
		c-6.714,0-12.277-4.137-16.686-12.423c-4.412-8.281-6.617-18.677-6.617-31.191c0-15.331,2.349-29.514,7.049-42.556
		c3.547-10.045,9.157-21.056,16.83-33.041c5.273-8.632,8.487-13.655,9.638-15.067c3.834-4.757,7.815-7.137,11.939-7.137
		c6.423,0,11.795,5.2,16.111,15.596C161.153,32.653,163.167,43.577,163.167,55.736z M114.834,91.949
		c0,8.814,0.814,16.216,2.446,22.205c2.205,7.93,5.466,11.895,9.782,11.895c6.329,0,11.41-7.047,15.247-21.146
		c3.164-11.632,4.747-23.964,4.747-37.006c0-8.81-0.912-16.298-2.733-22.468c-2.302-7.93-5.707-11.895-10.214-11.895
		c-5.754,0-10.55,7.314-14.385,21.939C116.464,67.809,114.834,79.969,114.834,91.949z"/>
</g>
</svg>
