<?xml version="1.0" encoding="utf-8"?>
<!-- Generator: Adobe Illustrator 17.0.0, SVG Export Plug-In . SVG Version: 6.00 Build 0)  -->
<!DOCTYPE svg PUBLIC "-//W3C//DTD SVG 1.1//EN" "http://www.w3.org/Graphics/SVG/1.1/DTD/svg11.dtd">
<svg version="1.1" id="Ebene_1" xmlns="http://www.w3.org/2000/svg" xmlns:xlink="http://www.w3.org/1999/xlink" x="0px" y="0px"
	 width="160px" height="160.5px" viewBox="0 0 160 160.5" enable-background="new 0 0 160 160.5" xml:space="preserve">
<g>
	<path fill="#010202" d="M45.784,123.102c3.699,0,7.544-1.018,11.537-3.061c3.992-2.037,7.887-4.032,11.684-5.986l1.899,1.597
		l0.876,3.459c0,3.192-2.435,8.958-7.302,17.293c-4.87,8.338-8.033,12.504-9.493,12.504c-2.143-0.178-3.749-0.267-4.819-0.267
		c-1.267,0-3.263,0.353-5.988,1.065c-2.727,0.707-4.771,1.063-6.134,1.063c-0.975,0-2.8,0.087-5.477,0.267
		c-2.679,0.173-4.455,0.265-5.331,0.265c-4.87,0-9.032-0.49-12.487-1.464c-3.457-0.977-5.429-2.792-5.915-5.453
		c0.972-10.463,5.646-20.927,14.021-31.394c7.398-8.513,14.847-17.114,22.346-25.807c7.788-10.109,11.684-20.307,11.684-30.595
		c0-10.284-3.117-15.43-9.347-15.43c-3.409,0-6.817,1.687-10.223,5.054c-4.966,4.789-8.033,7.541-9.201,8.248
		c-2.825-0.886-4.527-3.281-5.112-7.184c1.363-6.206,5.5-13.834,12.414-22.88c6.913-9.046,12.268-13.568,16.065-13.568
		c6.913,0,12.218,1.954,15.919,5.853c4.769,4.968,7.156,13.394,7.156,25.274c0,15.078-5.162,30.242-15.481,45.493
		c-4.966,7.45-13.779,17.651-26.435,30.595c1.752,1.244,3.359,2.221,4.819,2.927C40.183,122.395,42.958,123.102,45.784,123.102z"/>
	<path fill="#010202" d="M135.531,58.585c0,18.802-4.918,38.935-14.751,60.392c-10.127,22.174-20.205,33.256-30.232,33.256
		c-6.817,0-12.464-4.164-16.941-12.504c-4.48-8.335-6.719-18.798-6.719-31.394c0-15.43,2.385-29.705,7.156-42.832
		c3.601-10.11,9.297-21.193,17.088-33.256c5.353-8.688,8.616-13.743,9.785-15.165c3.893-4.788,7.934-7.183,12.122-7.183
		c6.523,0,11.977,5.233,16.358,15.697C133.486,35.352,135.531,46.347,135.531,58.585z M86.459,95.033
		c0,8.872,0.826,16.321,2.483,22.349c2.238,7.981,5.55,11.972,9.931,11.972c6.426,0,11.586-7.093,15.481-21.284
		c3.213-11.707,4.82-24.119,4.82-37.246c0-8.867-0.927-16.403-2.775-22.614c-2.336-7.981-5.793-11.972-10.369-11.972
		c-5.842,0-10.712,7.361-14.605,22.081C88.113,70.736,86.459,82.974,86.459,95.033z"/>
</g>
</svg>
