<?xml version="1.0" encoding="utf-8"?>
<!-- Generator: Adobe Illustrator 17.0.0, SVG Export Plug-In . SVG Version: 6.00 Build 0)  -->
<!DOCTYPE svg PUBLIC "-//W3C//DTD SVG 1.1//EN" "http://www.w3.org/Graphics/SVG/1.1/DTD/svg11.dtd">
<svg version="1.1" id="Ebene_1" xmlns="http://www.w3.org/2000/svg" xmlns:xlink="http://www.w3.org/1999/xlink" x="0px" y="0px"
	 width="600px" height="600px" viewBox="0 0 600 600" enable-background="new 0 0 600 600" xml:space="preserve">
<path fill="#010202" d="M226.074,259.397h128.421c18.596,0,33.671,10.505,33.671,23.461l0,0c0,12.958-15.075,23.462-33.671,23.462
	H226.074c-18.596,0-33.671-10.505-33.671-23.462l0,0C192.401,269.901,207.477,259.397,226.074,259.397z"/>
<path fill="#010202" d="M217.457,397.371l26.876-27.105c11.051-11.146,14.757-25.39,8.277-31.815
	c-6.48-6.426-20.692-2.599-31.744,8.547l-26.777,27.006l-26.508-26.509c-11.099-11.099-25.327-14.865-31.779-8.413
	c-6.453,6.452-2.687,20.681,8.412,31.78l26.607,26.608l-26.274,26.498c-11.052,11.146-14.757,25.39-8.277,31.815
	c6.48,6.426,20.692,2.599,31.744-8.547l26.175-26.398l26.67,26.671c11.099,11.099,25.328,14.865,31.78,8.412
	c6.453-6.452,2.687-20.681-8.412-31.78L217.457,397.371z"/>
<g>
	<path fill="#010202" d="M172.656,551.313l-54.196-54.196c-7.848-7.848-17.909-10.511-22.472-5.949
		c-4.562,4.563-1.9,14.624,5.949,22.472l54.196,54.197c7.848,7.848,17.909,10.511,22.472,5.948
		C183.167,569.222,180.505,559.161,172.656,551.313z"/>
	<circle fill="#010202" cx="159.495" cy="510.015" r="14.02"/>
	<circle fill="#010202" cx="115.447" cy="555.114" r="14.02"/>
</g>
<path fill="#010202" d="M472.038,138.299l-0.303-71.376c-0.125-29.349-14.058-53.084-31.123-53.011
	c-17.064,0.072-30.796,23.924-30.671,53.274l0.302,71.113h-70.1c-29.35,0-53.143,13.833-53.143,30.896
	c-0.001,17.064,23.793,30.898,53.143,30.898l70.363,0.001l0.296,69.776c0.124,29.35,14.058,53.084,31.123,53.011
	c17.064-0.072,30.796-23.924,30.671-53.274l-0.295-69.514l70.529,0.001c29.35,0,53.143-13.834,53.143-30.898
	c0.001-17.064-23.793-30.898-53.143-30.898L472.038,138.299z"/>
<path fill="none" d="M508.5,316.5"/>
<path fill="none" d="M215.5,581.5"/>
</svg>
