<?xml version="1.0" encoding="utf-8"?>
<!-- Generator: Adobe Illustrator 17.0.0, SVG Export Plug-In . SVG Version: 6.00 Build 0)  -->
<!DOCTYPE svg PUBLIC "-//W3C//DTD SVG 1.1//EN" "http://www.w3.org/Graphics/SVG/1.1/DTD/svg11.dtd">
<svg version="1.1" id="Ebene_1" xmlns="http://www.w3.org/2000/svg" xmlns:xlink="http://www.w3.org/1999/xlink" x="0px" y="0px"
	 width="600px" height="600px" viewBox="0 0 600 600" enable-background="new 0 0 600 600" xml:space="preserve">
<path stroke="#000000" stroke-miterlimit="10" d="M299.75,24.833c-28.673,0-51.917,23.244-51.917,51.917
	c0,18.315,9.492,34.403,23.817,43.645c-10.059-8.222-16.484-20.723-16.484-34.728c0-24.761,20.073-44.833,44.833-44.833
	s44.833,20.073,44.833,44.833c0,13.102-5.622,24.888-14.583,33.086c12.974-9.438,21.416-24.73,21.416-42.002
	C351.667,48.077,328.423,24.833,299.75,24.833z"/>
<rect x="271.667" y="128.833" stroke="#000000" stroke-miterlimit="10" width="58.194" height="37.833"/>
<path stroke="#000000" stroke-miterlimit="10" d="M300,159c-105.855,0-191.667,85.812-191.667,191.667S194.145,542.334,300,542.334
	s191.667-85.812,191.667-191.667S405.855,159,300,159z M300.764,513.833c-97.018,0-165.293-66.148-165.293-163.167
	s68.008-163.833,165.026-163.833s162.974,66.816,162.974,163.833S397.782,513.833,300.764,513.833z"/>
<rect x="261.167" y="103.833" stroke="#000000" stroke-miterlimit="10" width="77.667" height="28.333"/>
<rect x="125.441" y="343.566" stroke="#000000" stroke-miterlimit="10" width="32.059" height="12.868"/>
<rect x="441.382" y="343.566" stroke="#000000" stroke-miterlimit="10" width="32.059" height="12.868"/>
<rect x="293.566" y="175.804" stroke="#000000" stroke-miterlimit="10" width="12.868" height="32.059"/>
<rect x="293.566" y="491.804" stroke="#000000" stroke-miterlimit="10" width="12.868" height="32.059"/>
<circle stroke="#000000" stroke-miterlimit="10" cx="300" cy="350" r="15.833"/>
<path stroke="#000000" stroke-miterlimit="10" d="M307.979,245.632c0-6.148-3.572-11.132-7.979-11.132l0,0
	c-4.407,0-7.979,4.984-7.979,11.132v91.404c0,6.148,3.572,11.132,7.979,11.132l0,0c4.407,0,7.979-4.984,7.979-11.132V245.632z"/>
</svg>
