<?xml version="1.0" encoding="utf-8"?>
<!-- Generator: Adobe Illustrator 17.0.0, SVG Export Plug-In . SVG Version: 6.00 Build 0)  -->
<!DOCTYPE svg PUBLIC "-//W3C//DTD SVG 1.1//EN" "http://www.w3.org/Graphics/SVG/1.1/DTD/svg11.dtd">
<svg version="1.1" id="Ebene_1" xmlns="http://www.w3.org/2000/svg" xmlns:xlink="http://www.w3.org/1999/xlink" x="0px" y="0px"
	 width="600px" height="600px" viewBox="0 0 600 600" enable-background="new 0 0 600 600" xml:space="preserve">
<title>Draw</title>
<path d="M464,250H350.5V136.5c0-47.497-22.386-86-50-86c-27.614,0-50,38.503-50,86V250H136c-47.496,0-86,22.386-86,50
	c0,27.614,38.504,50,86,50h114.5v114.5c0,47.496,22.386,86,50,86c27.614,0,50-38.504,50-86V350H464c47.496,0,86-22.386,86-50
	C550,272.386,511.496,250,464,250z"/>
</svg>
