<?xml version="1.0" encoding="utf-8"?>
<!-- Generator: Adobe Illustrator 16.0.0, SVG Export Plug-In . SVG Version: 6.00 Build 0)  -->
<!DOCTYPE svg PUBLIC "-//W3C//DTD SVG 1.1//EN" "http://www.w3.org/Graphics/SVG/1.1/DTD/svg11.dtd">
<svg version="1.1" id="Ebene_1" xmlns="http://www.w3.org/2000/svg" xmlns:xlink="http://www.w3.org/1999/xlink" x="0px" y="0px"
	 width="595.28px" height="841.89px" viewBox="0 0 595.28 841.89" enable-background="new 0 0 595.28 841.89" xml:space="preserve">
<rect fill="#FFFFFF" stroke="#000000" stroke-miterlimit="10" width="274.5" height="150"/>
<rect x="274.93" fill="#FFFFFF" stroke="#000000" stroke-miterlimit="10" width="320.78" height="150"/>
<line fill="none" stroke="#000000" stroke-miterlimit="10" x1="296.64" y1="12.5" x2="572" y2="12.5"/>
<line fill="none" stroke="#000000" stroke-miterlimit="10" x1="296.64" y1="24.5" x2="572" y2="24.5"/>
<line fill="none" stroke="#000000" stroke-miterlimit="10" x1="296.64" y1="37" x2="572" y2="37"/>
<line fill="none" stroke="#000000" stroke-miterlimit="10" x1="296.64" y1="50" x2="572" y2="50"/>
<line fill="none" stroke="#000000" stroke-miterlimit="10" x1="296.64" y1="62.25" x2="572" y2="62.25"/>
<line fill="none" stroke="#000000" stroke-miterlimit="10" x1="296.64" y1="74.25" x2="572" y2="74.25"/>
<line fill="none" stroke="#000000" stroke-miterlimit="10" x1="296.64" y1="86.75" x2="572" y2="86.75"/>
<line fill="none" stroke="#000000" stroke-miterlimit="10" x1="296.64" y1="99.75" x2="572" y2="99.75"/>
<line fill="none" stroke="#000000" stroke-miterlimit="10" x1="296.64" y1="113" x2="572" y2="113"/>
<line fill="none" stroke="#000000" stroke-miterlimit="10" x1="296.64" y1="125" x2="572" y2="125"/>
<line fill="none" stroke="#000000" stroke-miterlimit="10" x1="296.64" y1="137.5" x2="572" y2="137.5"/>
<g>
	<g>
		<path d="M6.929,73.522c25.333-18.621,50.667-37.243,76-55.864c2.568-1.888,0.079-6.23-2.523-4.317
			c-25.333,18.621-50.667,37.243-76,55.864C1.837,71.093,4.327,75.435,6.929,73.522L6.929,73.522z"/>
	</g>
</g>
<g>
	<g>
		<path d="M79.9,17.268c13.333,17.037,26.667,34.074,40,51.11c1.986,2.538,5.498-1.028,3.535-3.535
			c-13.333-17.037-26.667-34.074-40-51.11C81.449,11.195,77.937,14.76,79.9,17.268L79.9,17.268z"/>
	</g>
</g>
<g>
	<g>
		<path d="M122.929,68.769c11.111-8.519,22.222-17.037,33.333-25.555c2.521-1.933,0.036-6.28-2.523-4.317
			c-11.111,8.519-22.223,17.037-33.333,25.555C117.884,66.385,120.37,70.731,122.929,68.769L122.929,68.769z"/>
	</g>
</g>
<g>
	<g>
		<path d="M265.501,88.333c0,18.667,0,37.333,0,56c0,3.224,5,3.224,5,0c0-18.667,0-37.333,0-56
			C270.501,85.108,265.501,85.108,265.501,88.333L265.501,88.333z"/>
	</g>
</g>
<g>
	<g>
		<path d="M268.001,141.833c-44.721,0-89.442,0-134.163,0c-42.724,0-85.447,0-128.171,0c-3.224,0-3.224,5,0,5
			c44.721,0,89.442,0,134.163,0c42.724,0,85.447,0,128.171,0C271.225,146.833,271.225,141.833,268.001,141.833L268.001,141.833z"/>
	</g>
</g>
<g>
	<g>
		<path d="M8.167,144.333c0-24.323,0-48.646,0-72.969c0-3.224-5-3.224-5,0c0,24.323,0,48.646,0,72.969
			C3.167,147.557,8.167,147.557,8.167,144.333L8.167,144.333z"/>
	</g>
</g>
<g>
	<g>
		<path d="M154.336,43.466c31.611,8.519,63.222,17.037,94.833,25.555c3.118,0.84,4.439-3.983,1.329-4.821
			c-31.611-8.519-63.222-17.037-94.833-25.555C152.548,37.804,151.227,42.628,154.336,43.466L154.336,43.466z"/>
	</g>
</g>
<g>
	<g>
		<path d="M248.066,68.378c6.056,7.241,12.111,14.481,18.167,21.722c2.071,2.477,5.588-1.081,3.535-3.535
			c-6.056-7.241-12.111-14.481-18.167-21.722C249.531,62.366,246.013,65.923,248.066,68.378L248.066,68.378z"/>
	</g>
</g>
</svg>
