<?xml version="1.0" encoding="utf-8"?>
<!-- Generator: Adobe Illustrator 17.0.0, SVG Export Plug-In . SVG Version: 6.00 Build 0)  -->
<!DOCTYPE svg PUBLIC "-//W3C//DTD SVG 1.1//EN" "http://www.w3.org/Graphics/SVG/1.1/DTD/svg11.dtd">
<svg version="1.1" id="Ebene_1" xmlns="http://www.w3.org/2000/svg" xmlns:xlink="http://www.w3.org/1999/xlink" x="0px" y="0px"
	 width="600px" height="600px" viewBox="0 0 600 600" enable-background="new 0 0 600 600" xml:space="preserve">
<title>Draw</title>
<path d="M370.818,300.728l81.327-82.021c33.442-33.727,44.656-76.831,25.047-96.274c-19.609-19.443-62.615-7.863-96.058,25.864
	l-81.029,81.719l-80.215-80.215c-33.585-33.585-76.64-44.982-96.167-25.456c-19.526,19.526-8.129,62.581,25.456,96.167
	l80.515,80.515l-79.505,80.183c-33.442,33.727-44.656,76.831-25.047,96.274c19.609,19.443,62.615,7.864,96.058-25.864l79.207-79.882
	l80.705,80.705c33.585,33.585,76.64,44.982,96.167,25.456c19.526-19.526,8.129-62.581-25.456-96.167L370.818,300.728z"/>
</svg>
